<?xml version="1.0" standalone="no"?><!DOCTYPE svg PUBLIC "-//W3C//DTD SVG 1.1//EN" "http://www.w3.org/Graphics/SVG/1.1/DTD/svg11.dtd"><svg width="25" height="25" viewBox="0 0 25 25" version="1.1" xmlns="http://www.w3.org/2000/svg" xmlns:xlink="http://www.w3.org/1999/xlink"><defs><style type="text/css"><![CDATA[

]]></style></defs><g class="transform-group"><g transform="scale(0.0244140625, 0.0244140625)"><path d="M740.072727 660.945455l41.890909-55.854546c-23.272727-18.618182-46.545455-32.581818-69.818181-46.545454-18.618182-9.309091-37.236364-18.618182-60.509091-27.927273 65.163636-51.2 102.4-130.327273 102.4-218.763637 0-158.254545-125.672727-283.927273-283.927273-283.927272s-279.272727 130.327273-279.272727 288.581818c0 93.090909 46.545455 172.218182 111.709091 223.418182C144.290909 605.090909 23.272727 754.036364 4.654545 930.909091c-4.654545 23.272727-4.654545 41.890909-4.654545 60.509091h69.818182c0-18.618182 0-32.581818 4.654545-51.2 23.272727-209.454545 204.8-367.709091 414.254546-367.709091 69.818182 0 134.981818 18.618182 195.490909 46.545454l55.854545 41.89091z m-349.090909-144.29091c-79.127273-32.581818-130.327273-107.054545-130.327273-200.145454 0-116.363636 97.745455-214.109091 214.109091-214.109091s214.109091 97.745455 214.109091 214.109091c0 88.436364-51.2 162.909091-125.672727 195.490909-23.272727-4.654545-51.2-4.654545-74.472727-4.654545-32.581818 0-65.163636 0-97.745455 9.30909zM898.327273 665.6c-18.618182 0-37.236364 4.654545-51.2 9.309091-13.963636-4.654545-32.581818-9.309091-51.2-9.309091-69.818182 0-125.672727 55.854545-125.672728 125.672727 0 37.236364 13.963636 69.818182 41.89091 93.090909l83.781818 79.127273c13.963636 13.963636 32.581818 18.618182 46.545454 18.618182 18.618182 0 32.581818-4.654545 46.545455-18.618182l51.2-51.2c9.309091-9.309091 18.618182-13.963636 23.272727-23.272727l9.309091-9.309091c27.927273-23.272727 41.890909-55.854545 41.890909-93.090909 9.309091-65.163636-46.545455-121.018182-116.363636-121.018182z m37.236363 172.218182l-9.309091 9.309091c-4.654545 9.309091-13.963636 13.963636-23.272727 23.272727l-51.2 51.2-83.781818-83.781818c-13.963636-13.963636-23.272727-27.927273-23.272727-46.545455 0-27.927273 23.272727-55.854545 55.854545-55.854545 23.272727 0 41.890909 13.963636 51.2 32.581818 9.309091-18.618182 27.927273-32.581818 51.2-32.581818 27.927273 0 55.854545 23.272727 55.854546 55.854545-4.654545 18.618182-13.963636 32.581818-23.272728 46.545455z" fill="#a9b7b7"></path></g></g></svg>