<?xml version="1.0" standalone="no"?><!DOCTYPE svg PUBLIC "-//W3C//DTD SVG 1.1//EN" "http://www.w3.org/Graphics/SVG/1.1/DTD/svg11.dtd"><svg width="30.1171875" height="30" viewBox="0 0 30.1171875 30" version="1.1" xmlns="http://www.w3.org/2000/svg" xmlns:xlink="http://www.w3.org/1999/xlink"><defs><style type="text/css"><![CDATA[

]]></style></defs><g class="transform-group"><g transform="scale(0.029296875, 0.029296875)"><path d="M237.381818 400.290909h69.818182V465.454545H237.381818zM237.381818 535.272727h69.818182v65.163637H237.381818zM986.763636 125.672727H377.018182c-13.963636 0-23.272727 9.309091-32.581818 18.618182-13.963636 27.927273-37.236364 41.890909-69.818182 41.890909s-51.2-13.963636-65.163637-41.890909c-9.309091-13.963636-18.618182-18.618182-32.581818-18.618182h-139.636363c-23.272727 0-37.236364 13.963636-37.236364 32.581818v702.836364c0 18.618182 13.963636 37.236364 37.236364 37.236364h134.981818c13.963636 0 27.927273-9.309091 32.581818-23.272728 9.309091-32.581818 41.890909-55.854545 74.472727-55.854545s65.163636 23.272727 74.472728 55.854545c4.654545 13.963636 18.618182 23.272727 32.581818 23.272728h605.090909c18.618182 0 37.236364-13.963636 37.236363-37.236364V158.254545c-4.654545-18.618182-18.618182-32.581818-41.890909-32.581818z m-32.581818 702.836364H404.945455c-18.618182-37.236364-55.854545-65.163636-97.745455-74.472727v-88.436364H237.381818v88.436364c-41.890909 9.309091-74.472727 37.236364-93.090909 74.472727H69.818182V195.490909h88.436363c18.618182 27.927273 46.545455 46.545455 79.127273 55.854546v83.781818h69.818182V251.345455c37.236364-9.309091 65.163636-27.927273 88.436364-55.854546h558.545454v633.018182z" fill="#272636"></path></g></g></svg>