<?xml version="1.0" standalone="no"?><!DOCTYPE svg PUBLIC "-//W3C//DTD SVG 1.1//EN" "http://www.w3.org/Graphics/SVG/1.1/DTD/svg11.dtd"><svg width="25" height="25" viewBox="0 0 25 25" version="1.1" xmlns="http://www.w3.org/2000/svg" xmlns:xlink="http://www.w3.org/1999/xlink"><defs><style type="text/css"><![CDATA[

]]></style></defs><g class="transform-group"><g transform="scale(0.0244140625, 0.0244140625)"><path d="M842.666667 885.333333l-256 0c-23.466667 0-42.666667-19.2-42.666667-42.666667l0-256c0-23.466667 19.2-42.666667 42.666667-42.666667l256 0c23.466667 0 42.666667 19.2 42.666667 42.666667l0 256C885.333333 866.133333 866.133333 885.333333 842.666667 885.333333zM842.666667 586.666667l-256 0 0 256 256 0L842.666667 586.666667zM842.666667 480l-256 0c-23.466667 0-42.666667-19.2-42.666667-42.666667l0-256c0-23.466667 19.2-42.666667 42.666667-42.666667l256 0c23.466667 0 42.666667 19.2 42.666667 42.666667l0 256C885.333333 460.8 866.133333 480 842.666667 480zM842.666667 181.333333l-256 0 0 256 256 0L842.666667 181.333333zM437.333333 885.333333l-256 0c-23.466667 0-42.666667-19.2-42.666667-42.666667l0-256c0-23.466667 19.2-42.666667 42.666667-42.666667l256 0c23.466667 0 42.666667 19.2 42.666667 42.666667l0 256C480 866.133333 460.8 885.333333 437.333333 885.333333zM437.333333 586.666667l-256 0 0 256 256 0L437.333333 586.666667zM437.333333 480l-256 0c-23.466667 0-42.666667-19.2-42.666667-42.666667l0-256c0-23.466667 19.2-42.666667 42.666667-42.666667l256 0c23.466667 0 42.666667 19.2 42.666667 42.666667l0 256C480 460.8 460.8 480 437.333333 480zM437.333333 181.333333l-256 0 0 256 256 0L437.333333 181.333333z" fill="#a9b7b7"></path></g></g></svg>